<svg width="28" height="28" viewBox="0 0 28 28" fill="none" xmlns="http://www.w3.org/2000/svg">
<path d="M12.11 26.264C9.84197 25.158 8.09197 23.954 6.64997 22.484C5.23597 21.042 4.50797 19.908 3.96197 18.27L3.58397 17.15V11.438C3.56997 6.10398 3.58397 5.71198 3.82197 5.52998C3.96197 5.43198 4.67597 5.20798 5.43197 5.03998C8.28797 4.38198 10.08 3.56998 12.558 1.79198C13.174 1.34398 13.818 0.97998 13.986 0.97998C14.14 0.97998 14.952 1.44198 15.778 2.01598C18.228 3.69598 20.062 4.49398 22.848 5.10998C24.57 5.48798 24.43 4.99798 24.472 10.388C24.514 15.386 24.402 17.22 23.94 18.55C22.932 21.476 20.048 24.248 15.89 26.264C15.05 26.684 14.196 27.02 14 27.02C13.804 27.02 12.964 26.684 12.11 26.264ZM15.568 24.654C19.502 22.652 21.952 20.104 22.61 17.346C22.778 16.632 22.82 15.428 22.82 11.606V6.76198L22.26 6.66398C21.322 6.50998 19.054 5.73998 17.794 5.15198C17.15 4.84398 16.03 4.18598 15.302 3.69598L13.986 2.79998L12.894 3.56998C10.948 4.94198 7.65797 6.35598 5.73997 6.66398L5.17997 6.76198V11.606C5.17997 17.052 5.24997 17.556 6.13197 19.222C6.77597 20.454 8.46997 22.218 9.98197 23.226C11.2 24.038 13.664 25.34 14 25.34C14.112 25.34 14.812 25.032 15.568 24.654Z" fill="#187E9D"/>
<path d="M13.09 20.846C11.102 20.608 9.11402 19.306 8.02202 17.5C6.81802 15.526 6.81802 12.474 8.02202 10.5C8.47002 9.75798 9.60402 8.59598 10.346 8.13398C12.488 6.77598 15.512 6.77598 17.654 8.13398C18.396 8.59598 19.53 9.75798 19.978 10.5C21.182 12.474 21.182 15.526 19.978 17.5C19.53 18.242 18.396 19.404 17.654 19.866C16.366 20.692 14.742 21.028 13.09 20.846ZM16.31 18.774C17.36 18.256 18.368 17.234 18.872 16.128C19.194 15.442 19.25 15.148 19.25 14C19.25 12.852 19.194 12.558 18.872 11.872C18.354 10.752 17.374 9.74398 16.254 9.19798C15.414 8.79198 15.218 8.74998 14 8.74998C12.852 8.74998 12.558 8.80598 11.872 9.12798C10.752 9.64598 9.74402 10.626 9.19802 11.746C8.79202 12.586 8.75002 12.782 8.75002 14C8.75002 15.148 8.80602 15.442 9.12802 16.128C9.80002 17.57 11.13 18.718 12.586 19.138C13.664 19.446 15.274 19.278 16.31 18.774Z" fill="#187E9D"/>
<path d="M11.858 15.554C11.116 14.798 10.5 14.098 10.5 14.014C10.5 13.762 11.158 13.16 11.424 13.16C11.55 13.16 12.082 13.58 12.614 14.098L13.594 15.036L15.372 13.258C16.772 11.872 17.234 11.48 17.528 11.48C17.906 11.48 18.34 11.914 18.34 12.306C18.34 12.418 17.346 13.51 16.142 14.728C14.42 16.45 13.86 16.94 13.58 16.94C13.3 16.94 12.88 16.604 11.858 15.554Z" fill="#187E9D"/>
</svg>
