<svg width="25" height="25" viewBox="0 0 25 25" fill="none" xmlns="http://www.w3.org/2000/svg">
<path d="M12.5001 24.479C19.116 24.479 24.4793 19.1158 24.4793 12.4999C24.4793 5.88398 19.116 0.520752 12.5001 0.520752C5.88425 0.520752 0.520996 5.88398 0.520996 12.4999C0.520996 19.1158 5.88425 24.479 12.5001 24.479Z" fill="url(#paint0_linear_1517_1572)" style=""/>
<path d="M14.1612 13.9562C14.086 13.9316 13.6107 13.7173 13.9077 12.8145H13.9034C14.6776 12.0172 15.2693 10.7341 15.2693 9.47091C15.2693 7.52859 13.9777 6.51038 12.4766 6.51038C10.9746 6.51038 9.69011 7.52812 9.69011 9.47091C9.69011 10.7393 10.2784 12.0276 11.0573 12.823C11.361 13.6194 10.818 13.915 10.7045 13.9562C9.64623 14.2984 6.76724 16.0047 6.81279 18.4895H18.187C18.2378 16.1158 15.9605 14.5744 14.1612 13.9562Z" fill="white" fill-opacity="0.846939" style="fill:white;fill-opacity:0.846939;"/>
<defs>
<linearGradient id="paint0_linear_1517_1572" x1="12.006" y1="23.915" x2="12.006" y2="0.81234" gradientUnits="userSpaceOnUse">
<stop stop-color="#0054F5" style="stop-color:#0054F5;stop-color:color(display-p3 0.0000 0.3294 0.9608);stop-opacity:1;"/>
<stop offset="1" stop-color="#5A8CFF" style="stop-color:#5A8CFF;stop-color:color(display-p3 0.3529 0.5490 1.0000);stop-opacity:1;"/>
</linearGradient>
</defs>
</svg>
