<svg width="26" height="23" viewBox="0 0 26 23" fill="none" xmlns="http://www.w3.org/2000/svg">
<path d="M13.5 23C15.3133 23 16.7842 21.713 16.7842 20.125H10.2158C10.2158 21.713 11.6867 23 13.5 23ZM24.5579 16.2747C23.5661 15.3422 21.7102 13.9393 21.7102 9.34375C21.7102 5.85332 18.9132 3.05918 15.1418 2.37367V1.4375C15.1418 0.64373 14.4066 0 13.5 0C12.5934 0 11.8582 0.64373 11.8582 1.4375V2.37367C8.0868 3.05918 5.28985 5.85332 5.28985 9.34375C5.28985 13.9393 3.43394 15.3422 2.44207 16.2747C2.13403 16.5645 1.99747 16.9108 2.00004 17.25C2.00568 17.9867 2.66642 18.6875 3.64802 18.6875H23.352C24.3336 18.6875 24.9948 17.9867 25 17.25C25.0025 16.9108 24.866 16.564 24.5579 16.2747Z" fill="white"/>
</svg>
