<svg width="30" height="30" viewBox="0 0 30 30" fill="none" xmlns="http://www.w3.org/2000/svg">
<g clip-path="url(#clip0_1897_42)">
<path d="M4.395 25.605C2.96234 24.2213 1.81961 22.5661 1.03348 20.7361C0.247341 18.906 -0.166453 16.9377 -0.18376 14.946C-0.201067 12.9543 0.178458 10.9791 0.932672 9.13569C1.68689 7.29224 2.80068 5.61747 4.20907 4.20907C5.61746 2.80068 7.29224 1.68689 9.13569 0.932675C10.9791 0.178461 12.9543 -0.201064 14.946 -0.183757C16.9377 -0.16645 18.906 0.247344 20.7361 1.03348C22.5661 1.81961 24.2213 2.96235 25.605 4.395C28.3374 7.22403 29.8493 11.0131 29.8151 14.946C29.7809 18.879 28.2034 22.6412 25.4223 25.4223C22.6412 28.2034 18.879 29.7809 14.946 29.8151C11.0131 29.8493 7.22403 28.3374 4.395 25.605ZM6.51 23.49C8.76168 25.7417 11.8156 27.0067 15 27.0067C18.1844 27.0067 21.2383 25.7417 23.49 23.49C25.7417 21.2383 27.0067 18.1844 27.0067 15C27.0067 11.8156 25.7417 8.76169 23.49 6.51C21.2383 4.25831 18.1844 2.99333 15 2.99333C11.8156 2.99333 8.76168 4.25831 6.51 6.51C4.25831 8.76169 2.99332 11.8156 2.99332 15C2.99332 18.1844 4.25831 21.2383 6.51 23.49ZM21.36 10.755L17.115 15L21.36 19.245L19.245 21.36L15 17.115L10.755 21.36L8.64 19.245L12.885 15L8.64 10.755L10.755 8.64L15 12.885L19.245 8.64L21.36 10.755Z" fill="black"/>
</g>
<defs>
<clipPath id="clip0_1897_42">
<rect width="30" height="30" fill="white"/>
</clipPath>
</defs>
</svg>
