<svg width="45" height="45" viewBox="0 0 45 45" fill="none" xmlns="http://www.w3.org/2000/svg">
<g clip-path="url(#clip0_1703_888)">
<path d="M6.5925 38.4075C4.44352 36.3319 2.72942 33.8492 1.55021 31.1041C0.371011 28.359 -0.249679 25.4066 -0.27564 22.419C-0.301601 19.4315 0.267688 16.4687 1.39901 13.7035C2.53033 10.9384 4.20102 8.42619 6.31361 6.31361C8.42619 4.20102 10.9384 2.53033 13.7035 1.39901C16.4687 0.267688 19.4315 -0.301601 22.419 -0.27564C25.4066 -0.249679 28.359 0.371011 31.1041 1.55021C33.8492 2.72942 36.3319 4.44352 38.4075 6.5925C42.5061 10.836 44.7739 16.5196 44.7227 22.419C44.6714 28.3184 42.3051 33.9617 38.1334 38.1334C33.9617 42.3051 28.3184 44.6714 22.419 44.7227C16.5196 44.7739 10.836 42.5061 6.5925 38.4075ZM25.65 22.5L32.0175 16.1325L28.845 12.96L22.5 19.3275L16.1325 12.96L12.96 16.1325L19.3275 22.5L12.96 28.8675L16.1325 32.04L22.5 25.6725L28.8675 32.04L32.04 28.8675L25.6725 22.5H25.65Z" fill="#0054F5"/>
</g>
<defs>
<clipPath id="clip0_1703_888">
<rect width="45" height="45" fill="white"/>
</clipPath>
</defs>
</svg>
