<svg width="21" height="22" viewBox="0 0 21 22" fill="none" xmlns="http://www.w3.org/2000/svg">
<path d="M7.90824 1.64688e-05C7.15173 1.97191e-05 6.41222 0.287395 5.78334 0.825763C5.15446 1.36413 4.66448 2.12928 4.37543 3.02436C4.08638 3.91944 4.01126 4.90419 4.15957 5.85396C4.30788 6.80373 4.67296 7.67581 5.20859 8.35979C5.74422 9.04378 6.42631 9.50893 7.16853 9.69635C7.91074 9.88376 8.67971 9.78503 9.37807 9.41264C10.0764 9.04024 10.6728 8.41094 11.0917 7.60439C11.5105 6.79784 11.7331 5.85031 11.7311 4.88175C11.7311 4.23961 11.6322 3.60377 11.4399 3.01066C11.2477 2.41755 10.9659 1.87883 10.6108 1.42535C10.2557 0.971876 9.8342 0.612555 9.37044 0.367971C8.90669 0.123388 8.4098 -0.00165145 7.90824 1.64688e-05ZM14.5933 9.73813C14.5345 9.73963 14.4778 9.76686 14.4328 9.81531C14.3878 9.86375 14.357 9.93049 14.3457 10.0044L14.1675 11.6147C13.8824 11.7694 13.6103 11.9605 13.3553 12.1853L12.1669 11.5767C12.1102 11.5644 12.052 11.5735 11.9992 11.6028C11.9465 11.632 11.9015 11.6802 11.8698 11.7415L10.8794 13.8464C10.8505 13.91 10.8406 13.9849 10.8515 14.0572C10.8624 14.1295 10.8934 14.1942 10.9388 14.2395L11.9292 15.2412C11.8871 15.6621 11.8871 16.0882 11.9292 16.5092L10.9388 17.5109C10.8942 17.5539 10.8635 17.6165 10.8525 17.6866C10.8416 17.7567 10.8511 17.8296 10.8794 17.8913L11.8698 20.0088C11.9292 20.1736 12.0579 20.1736 12.1669 20.1736L13.3553 19.5523C13.6064 19.7885 13.8792 19.9844 14.1675 20.1356L14.3457 21.7459C14.3554 21.8198 14.386 21.8865 14.4317 21.9333C14.4773 21.9801 14.5349 22.0037 14.5933 21.9995H16.5048C16.5598 21.9976 16.6126 21.9712 16.6541 21.925C16.6957 21.8787 16.7234 21.8154 16.7325 21.7459L16.9108 20.1356C17.1918 19.9736 17.4604 19.7783 17.713 19.5523L18.8916 20.1736C19.0104 20.1736 19.1392 20.1736 19.2085 20.0088L20.1989 17.8913C20.2271 17.8296 20.2367 17.7567 20.2257 17.6866C20.2148 17.6165 20.1841 17.5539 20.1394 17.5109L19.1491 16.5092C19.159 16.3023 19.159 16.0948 19.1491 15.8879C19.1633 15.6854 19.1633 15.4817 19.1491 15.2792L20.1394 14.2775C20.1832 14.2307 20.2129 14.1661 20.2238 14.0945C20.2346 14.0229 20.2258 13.9487 20.1989 13.8844L19.2085 11.7796C19.1491 11.6147 19.0203 11.6147 18.9015 11.6147L17.713 12.2741C17.4603 12.0446 17.1878 11.8531 16.9009 11.7035L16.7226 10.0932C16.7179 10.0224 16.6931 9.95636 16.653 9.90734C16.6129 9.85832 16.5602 9.82971 16.5048 9.82689H14.7023M8.01719 12.2741C3.79816 12.2741 0.381348 14.4297 0.381348 17.1305V19.565H9.6216C9.2047 18.4373 8.98845 17.2052 8.98845 15.9576C8.98845 14.71 9.2047 13.4779 9.6216 12.3502C9.08846 12.2839 8.5527 12.2585 8.01719 12.2741ZM15.5441 14.0873C15.742 14.0662 15.9412 14.0979 16.1291 14.1804C16.317 14.2629 16.4895 14.3944 16.6356 14.5666C16.7818 14.7388 16.8985 14.948 16.9783 15.1808C17.0581 15.4137 17.0993 15.6652 17.0993 15.9196C17.0993 16.1739 17.0581 16.4254 16.9783 16.6583C16.8985 16.8911 16.7818 17.1003 16.6356 17.2725C16.4895 17.4447 16.317 17.5762 16.1291 17.6587C15.9412 17.7412 15.742 17.7729 15.5441 17.7518C15.1851 17.7135 14.8504 17.5039 14.6065 17.1645C14.3626 16.8251 14.2272 16.3808 14.2272 15.9196C14.2272 15.4583 14.3626 15.014 14.6065 14.6746C14.8504 14.3352 15.1851 14.1256 15.5441 14.0873Z" fill="#0054F5"/>
</svg>
