<svg width="24" height="26" viewBox="0 0 24 26" fill="none" xmlns="http://www.w3.org/2000/svg">
<path d="M12.1875 16.25C13.8103 16.25 15.1259 14.7949 15.1259 13C15.1259 11.2051 13.8103 9.75 12.1875 9.75C10.5646 9.75 9.24902 11.2051 9.24902 13C9.24902 14.7949 10.5646 16.25 12.1875 16.25Z" stroke="#0054F5" stroke-width="2"/>
<path d="M13.916 2.33161C13.556 2.16669 13.0996 2.16669 12.1869 2.16669C11.2741 2.16669 10.8178 2.16669 10.4577 2.33161C9.97772 2.55152 9.59637 2.97332 9.39754 3.5042C9.30678 3.74656 9.27126 4.0284 9.25736 4.43951C9.23694 5.04367 8.95681 5.6029 8.48341 5.90519C8.01003 6.20748 7.43209 6.19619 6.94881 5.91368C6.61996 5.72143 6.38152 5.61453 6.14638 5.58029C5.63127 5.50528 5.11033 5.65967 4.69814 6.00949C4.389 6.27185 4.16081 6.709 3.70443 7.58328C3.24806 8.45757 3.01987 8.89471 2.96901 9.32201C2.9012 9.89172 3.04078 10.4679 3.35706 10.9238C3.50142 11.1319 3.70431 11.3068 4.0192 11.5256C4.48211 11.8474 4.77996 12.3954 4.77993 13C4.7799 13.6046 4.48206 14.1526 4.01919 14.4742C3.70426 14.6932 3.50134 14.8681 3.35697 15.0762C3.04068 15.5321 2.9011 16.1082 2.96892 16.6779C3.01977 17.1052 3.24796 17.5424 3.70434 18.4167C4.16072 19.2909 4.38891 19.7282 4.69804 19.9904C5.11023 20.3403 5.63117 20.4946 6.14628 20.4197C6.3814 20.3854 6.61984 20.2785 6.94867 20.0863C7.43197 19.8038 8.00995 19.7925 8.48337 20.0948C8.95679 20.3971 9.23694 20.9563 9.25736 21.5606C9.27127 21.9716 9.30678 22.2535 9.39754 22.4959C9.59637 23.0267 9.97772 23.4486 10.4577 23.6685C10.8178 23.8334 11.2741 23.8334 12.1869 23.8334C13.0996 23.8334 13.556 23.8334 13.916 23.6685C14.396 23.4486 14.7774 23.0267 14.9761 22.4959C15.0669 22.2535 15.1025 21.9716 15.1164 21.5605C15.1368 20.9563 15.4169 20.3971 15.8903 20.0948C16.3636 19.7924 16.9416 19.8038 17.425 20.0863C17.7538 20.2785 17.9922 20.3853 18.2273 20.4196C18.7424 20.4946 19.2634 20.3403 19.6755 19.9904C19.9847 19.7281 20.2129 19.2909 20.6692 18.4166C21.1257 17.5423 21.3539 17.1052 21.4047 16.6779C21.4725 16.1082 21.3329 15.532 21.0166 15.0761C20.8723 14.868 20.6693 14.6931 20.3544 14.4742C19.8916 14.1526 19.5938 13.6045 19.5938 12.9999C19.5938 12.3953 19.8916 11.8475 20.3544 11.5258C20.6694 11.3069 20.8724 11.132 21.0167 10.9238C21.333 10.468 21.4726 9.8918 21.4048 9.32207C21.354 8.89478 21.1258 8.45764 20.6693 7.58335C20.213 6.70907 19.9848 6.27192 19.6756 6.00956C19.2635 5.65974 18.7425 5.50536 18.2274 5.58037C17.9923 5.6146 17.7539 5.72149 17.425 5.91372C16.9417 6.19624 16.3637 6.20754 15.8904 5.90523C15.4169 5.60292 15.1368 5.04365 15.1164 4.43946C15.1025 4.02837 15.0669 3.74654 14.9761 3.5042C14.7774 2.97332 14.396 2.55152 13.916 2.33161Z" stroke="#0054F5" stroke-width="2"/>
</svg>
