<svg width="21" height="22" viewBox="0 0 21 22" fill="none" xmlns="http://www.w3.org/2000/svg">
<path fill-rule="evenodd" clip-rule="evenodd" d="M17.0948 19.8H3.54867C2.81957 19.8 2.28118 19.0333 2.55617 18.3282C3.83208 15.0678 6.82958 13.2 10.3212 13.2C13.8139 13.2 16.8114 15.0678 18.0873 18.3282C18.3623 19.0333 17.8239 19.8 17.0948 19.8ZM6.10681 6.59999C6.10681 4.17339 7.99803 2.19998 10.3212 2.19998C12.6455 2.19998 14.5356 4.17339 14.5356 6.59999C14.5356 9.02659 12.6455 11 10.3212 11C7.99803 11 6.10681 9.02659 6.10681 6.59999ZM20.597 19.3996C19.831 15.7047 17.4351 12.9778 14.2817 11.7403C15.9527 10.3356 16.9273 8.06403 16.5691 5.57693C16.154 2.69163 13.855 0.382775 11.0798 0.0461746C7.24892 -0.419126 3.99961 2.69389 3.99961 6.59999C3.99961 8.67899 4.92256 10.5314 6.36178 11.7403C3.2073 12.9778 0.812461 15.7047 0.0454388 19.3996C-0.232712 20.7427 0.804033 22 2.11998 22H18.5225C19.8395 22 20.8762 20.7427 20.597 19.3996Z" fill="#0054F5"/>
</svg>
