<svg width="36" height="36" viewBox="0 0 36 36" fill="none" xmlns="http://www.w3.org/2000/svg">
<path d="M10.5 28.5H7.5C7.10218 28.5 6.72064 28.342 6.43934 28.0607C6.15804 27.7794 6 27.3978 6 27V25.5C6 24.3065 6.47411 23.1619 7.31802 22.318C8.16193 21.4741 9.30653 21 10.5 21H12M18 12C18 13.1935 17.5259 14.3381 16.682 15.182C15.8381 16.0259 14.6935 16.5 13.5 16.5C12.3065 16.5 11.1619 16.0259 10.318 15.182C9.47411 14.3381 9 13.1935 9 12C9 10.8065 9.47411 9.66193 10.318 8.81802C11.1619 7.97411 12.3065 7.5 13.5 7.5C14.6935 7.5 15.8381 7.97411 16.682 8.81802C17.5259 9.66193 18 10.8065 18 12ZM29.1615 14.3385C29.4274 14.6042 29.6383 14.9196 29.7822 15.2668C29.9261 15.614 30.0001 15.9862 30.0001 16.362C30.0001 16.7378 29.9261 17.11 29.7822 17.4572C29.6383 17.8044 29.4274 18.1198 29.1615 18.3855L20.058 27.489L15 28.5L16.011 23.442L25.116 14.337C25.3816 14.0714 25.697 13.8606 26.044 13.7169C26.3911 13.5731 26.7631 13.4991 27.1388 13.4991C27.5144 13.4991 27.8864 13.5731 28.2335 13.7169C28.5805 13.8606 28.8959 14.0714 29.1615 14.337V14.3385Z" stroke="white" stroke-width="2" stroke-linecap="square" stroke-linejoin="round"/>
</svg>
