<svg width="40" height="39" viewBox="0 0 40 39" fill="none" xmlns="http://www.w3.org/2000/svg">
<path d="M38.0077 0.724522L22.3999 12.3167L25.2862 5.47746L38.0077 0.724522Z" fill="#E2761B" stroke="#E2761B" stroke-linecap="round" stroke-linejoin="round"/>
<path d="M1.97632 0.724522L17.4587 12.4265L14.7136 5.47746L1.97632 0.724522Z" fill="#E4761B" stroke="#E4761B" stroke-linecap="round" stroke-linejoin="round"/>
<path d="M32.3922 27.5951L28.2354 33.9637L37.1295 36.4108L39.6863 27.7363L32.3922 27.5951Z" fill="#E4761B" stroke="#E4761B" stroke-linecap="round" stroke-linejoin="round"/>
<path d="M0.329346 27.7363L2.87052 36.4108L11.7646 33.9637L7.60778 27.5951L0.329346 27.7363Z" fill="#E4761B" stroke="#E4761B" stroke-linecap="round" stroke-linejoin="round"/>
<path d="M11.2626 16.8343L8.78418 20.5833L17.6156 20.9755L17.3018 11.4853L11.2626 16.8343Z" fill="#E4761B" stroke="#E4761B" stroke-linecap="round" stroke-linejoin="round"/>
<path d="M28.7215 16.8343L22.6038 11.3755L22.3999 20.9755L31.2156 20.5833L28.7215 16.8343Z" fill="#E4761B" stroke="#E4761B" stroke-linecap="round" stroke-linejoin="round"/>
<path d="M11.7646 33.9637L17.0666 31.3755L12.4862 27.799L11.7646 33.9637Z" fill="#E4761B" stroke="#E4761B" stroke-linecap="round" stroke-linejoin="round"/>
<path d="M22.9175 31.3755L28.2351 33.9637L27.4979 27.799L22.9175 31.3755Z" fill="#E4761B" stroke="#E4761B" stroke-linecap="round" stroke-linejoin="round"/>
<path d="M28.2351 33.9637L22.9175 31.3755L23.341 34.8422L23.294 36.301L28.2351 33.9637Z" fill="#D7C1B3" stroke="#D7C1B3" stroke-linecap="round" stroke-linejoin="round"/>
<path d="M11.7646 33.9637L16.7058 36.301L16.6745 34.8422L17.0666 31.3755L11.7646 33.9637Z" fill="#D7C1B3" stroke="#D7C1B3" stroke-linecap="round" stroke-linejoin="round"/>
<path d="M16.7844 25.5088L12.3608 24.2069L15.4824 22.7794L16.7844 25.5088Z" fill="#233447" stroke="#233447" stroke-linecap="round" stroke-linejoin="round"/>
<path d="M23.2 25.5088L24.5019 22.7794L27.6392 24.2069L23.2 25.5088Z" fill="#233447" stroke="#233447" stroke-linecap="round" stroke-linejoin="round"/>
<path d="M11.7648 33.9637L12.5177 27.5951L7.60791 27.7363L11.7648 33.9637Z" fill="#CD6116" stroke="#CD6116" stroke-linecap="round" stroke-linejoin="round"/>
<path d="M27.4824 27.5951L28.2354 33.9637L32.3922 27.7363L27.4824 27.5951Z" fill="#CD6116" stroke="#CD6116" stroke-linecap="round" stroke-linejoin="round"/>
<path d="M31.2158 20.5833L22.4001 20.9755L23.2158 25.5088L24.5178 22.7794L27.655 24.2069L31.2158 20.5833Z" fill="#CD6116" stroke="#CD6116" stroke-linecap="round" stroke-linejoin="round"/>
<path d="M12.3609 24.2069L15.4981 22.7794L16.7844 25.5088L17.6158 20.9755L8.78442 20.5833L12.3609 24.2069Z" fill="#CD6116" stroke="#CD6116" stroke-linecap="round" stroke-linejoin="round"/>
<path d="M8.78442 20.5833L12.4864 27.799L12.3609 24.2069L8.78442 20.5833Z" fill="#E4751F" stroke="#E4751F" stroke-linecap="round" stroke-linejoin="round"/>
<path d="M27.6549 24.2069L27.498 27.799L31.2157 20.5833L27.6549 24.2069Z" fill="#E4751F" stroke="#E4751F" stroke-linecap="round" stroke-linejoin="round"/>
<path d="M17.6158 20.9755L16.7844 25.5088L17.8197 30.8579L18.055 23.8147L17.6158 20.9755Z" fill="#E4751F" stroke="#E4751F" stroke-linecap="round" stroke-linejoin="round"/>
<path d="M22.4001 20.9755L21.9766 23.799L22.1648 30.8579L23.2158 25.5088L22.4001 20.9755Z" fill="#E4751F" stroke="#E4751F" stroke-linecap="round" stroke-linejoin="round"/>
<path d="M23.2158 25.5088L22.1648 30.8579L22.9177 31.3755L27.4981 27.799L27.655 24.2069L23.2158 25.5088Z" fill="#F6851B" stroke="#F6851B" stroke-linecap="round" stroke-linejoin="round"/>
<path d="M12.3608 24.2069L12.4863 27.799L17.0667 31.3755L17.8197 30.8579L16.7844 25.5088L12.3608 24.2069Z" fill="#F6851B" stroke="#F6851B" stroke-linecap="round" stroke-linejoin="round"/>
<path d="M23.2941 36.301L23.3411 34.8422L22.949 34.4971H17.0352L16.6745 34.8422L16.7058 36.301L11.7646 33.9637L13.4901 35.3755L16.9882 37.8069H22.996L26.5097 35.3755L28.2352 33.9637L23.2941 36.301Z" fill="#C0AD9E" stroke="#C0AD9E" stroke-linecap="round" stroke-linejoin="round"/>
<path d="M22.9177 31.3755L22.1648 30.8579H17.8197L17.0667 31.3755L16.6746 34.8422L17.0353 34.4971H22.9491L23.3412 34.8422L22.9177 31.3755Z" fill="#161616" stroke="#161616" stroke-linecap="round" stroke-linejoin="round"/>
<path d="M38.6667 13.0696L40.0001 6.66962L38.0079 0.724522L22.9177 11.9245L28.7216 16.8343L36.9256 19.2343L38.7452 17.1167L37.9609 16.552L39.2158 15.4069L38.2432 14.6539L39.4981 13.6971L38.6667 13.0696Z" fill="#763D16" stroke="#763D16" stroke-linecap="round" stroke-linejoin="round"/>
<path d="M0 6.66962L1.33333 13.0696L0.486275 13.6971L1.74118 14.6539L0.784314 15.4069L2.03922 16.552L1.2549 17.1167L3.05882 19.2343L11.2627 16.8343L17.0667 11.9245L1.97647 0.724522L0 6.66962Z" fill="#763D16" stroke="#763D16" stroke-linecap="round" stroke-linejoin="round"/>
<path d="M36.9255 19.2343L28.7216 16.8343L31.2157 20.5833L27.498 27.799L32.3922 27.7363H39.6863L36.9255 19.2343Z" fill="#F6851B" stroke="#F6851B" stroke-linecap="round" stroke-linejoin="round"/>
<path d="M11.2627 16.8343L3.05876 19.2343L0.329346 27.7363H7.60778L12.4862 27.799L8.78425 20.5833L11.2627 16.8343Z" fill="#F6851B" stroke="#F6851B" stroke-linecap="round" stroke-linejoin="round"/>
<path d="M22.3999 20.9755L22.9175 11.9245L25.3019 5.47746H14.7136L17.0666 11.9245L17.6156 20.9755L17.8038 23.8304L17.8195 30.8579H22.1646L22.196 23.8304L22.3999 20.9755Z" fill="#F6851B" stroke="#F6851B" stroke-linecap="round" stroke-linejoin="round"/>
</svg>
