<svg width="40" height="41" viewBox="0 0 40 41" fill="none" xmlns="http://www.w3.org/2000/svg">
<g clip-path="url(#clip0_1517_1298)">
<path d="M38.0078 1.72455L22.4 13.3167L25.2863 6.47749L38.0078 1.72455Z" fill="#E2761B" stroke="#E2761B" stroke-linecap="round" stroke-linejoin="round"/>
<path d="M1.97647 1.72455L17.4588 13.4265L14.7137 6.47749L1.97647 1.72455Z" fill="#E4761B" stroke="#E4761B" stroke-linecap="round" stroke-linejoin="round"/>
<path d="M32.3922 28.5952L28.2353 34.9638L37.1294 37.4108L39.6863 28.7363L32.3922 28.5952Z" fill="#E4761B" stroke="#E4761B" stroke-linecap="round" stroke-linejoin="round"/>
<path d="M0.329407 28.7363L2.87058 37.4108L11.7647 34.9638L7.60784 28.5952L0.329407 28.7363Z" fill="#E4761B" stroke="#E4761B" stroke-linecap="round" stroke-linejoin="round"/>
<path d="M11.2627 17.8344L8.7843 21.5834L17.6157 21.9755L17.3019 12.4854L11.2627 17.8344Z" fill="#E4761B" stroke="#E4761B" stroke-linecap="round" stroke-linejoin="round"/>
<path d="M28.7216 17.8344L22.6039 12.3755L22.4 21.9756L31.2157 21.5834L28.7216 17.8344Z" fill="#E4761B" stroke="#E4761B" stroke-linecap="round" stroke-linejoin="round"/>
<path d="M11.7647 34.9638L17.0667 32.3755L12.4863 28.7991L11.7647 34.9638Z" fill="#E4761B" stroke="#E4761B" stroke-linecap="round" stroke-linejoin="round"/>
<path d="M22.9176 32.3755L28.2353 34.9638L27.498 28.7991L22.9176 32.3755Z" fill="#E4761B" stroke="#E4761B" stroke-linecap="round" stroke-linejoin="round"/>
<path d="M28.2353 34.9638L22.9176 32.3755L23.3412 35.8422L23.2941 37.301L28.2353 34.9638Z" fill="#D7C1B3" stroke="#D7C1B3" stroke-linecap="round" stroke-linejoin="round"/>
<path d="M11.7647 34.9638L16.7059 37.301L16.6745 35.8422L17.0667 32.3755L11.7647 34.9638Z" fill="#D7C1B3" stroke="#D7C1B3" stroke-linecap="round" stroke-linejoin="round"/>
<path d="M16.7843 26.5089L12.3608 25.2069L15.4823 23.7795L16.7843 26.5089Z" fill="#233447" stroke="#233447" stroke-linecap="round" stroke-linejoin="round"/>
<path d="M23.2 26.5089L24.502 23.7795L27.6392 25.2069L23.2 26.5089Z" fill="#233447" stroke="#233447" stroke-linecap="round" stroke-linejoin="round"/>
<path d="M11.7647 34.9638L12.5177 28.5952L7.60785 28.7363L11.7647 34.9638Z" fill="#CD6116" stroke="#CD6116" stroke-linecap="round" stroke-linejoin="round"/>
<path d="M27.4824 28.5952L28.2353 34.9638L32.3922 28.7363L27.4824 28.5952Z" fill="#CD6116" stroke="#CD6116" stroke-linecap="round" stroke-linejoin="round"/>
<path d="M31.2157 21.5834L22.4 21.9755L23.2157 26.5089L24.5177 23.7795L27.6549 25.2069L31.2157 21.5834Z" fill="#CD6116" stroke="#CD6116" stroke-linecap="round" stroke-linejoin="round"/>
<path d="M12.3608 25.2069L15.4981 23.7795L16.7843 26.5089L17.6157 21.9755L8.78433 21.5834L12.3608 25.2069Z" fill="#CD6116" stroke="#CD6116" stroke-linecap="round" stroke-linejoin="round"/>
<path d="M8.7843 21.5834L12.4863 28.7991L12.3608 25.2069L8.7843 21.5834Z" fill="#E4751F" stroke="#E4751F" stroke-linecap="round" stroke-linejoin="round"/>
<path d="M27.6549 25.2069L27.498 28.7991L31.2157 21.5834L27.6549 25.2069Z" fill="#E4751F" stroke="#E4751F" stroke-linecap="round" stroke-linejoin="round"/>
<path d="M17.6157 21.9755L16.7843 26.5089L17.8196 31.8579L18.0549 24.8147L17.6157 21.9755Z" fill="#E4751F" stroke="#E4751F" stroke-linecap="round" stroke-linejoin="round"/>
<path d="M22.4 21.9755L21.9765 24.7991L22.1647 31.8579L23.2157 26.5089L22.4 21.9755Z" fill="#E4751F" stroke="#E4751F" stroke-linecap="round" stroke-linejoin="round"/>
<path d="M23.2157 26.5089L22.1647 31.8579L22.9176 32.3755L27.498 28.7991L27.6549 25.2069L23.2157 26.5089Z" fill="#F6851B" stroke="#F6851B" stroke-linecap="round" stroke-linejoin="round"/>
<path d="M12.3608 25.2069L12.4863 28.7991L17.0667 32.3755L17.8196 31.8579L16.7843 26.5089L12.3608 25.2069Z" fill="#F6851B" stroke="#F6851B" stroke-linecap="round" stroke-linejoin="round"/>
<path d="M23.2941 37.301L23.3412 35.8422L22.949 35.4971H17.0353L16.6745 35.8422L16.7059 37.301L11.7647 34.9637L13.4902 36.3755L16.9882 38.8069H22.9961L26.5098 36.3755L28.2353 34.9637L23.2941 37.301Z" fill="#C0AD9E" stroke="#C0AD9E" stroke-linecap="round" stroke-linejoin="round"/>
<path d="M22.9176 32.3756L22.1647 31.8579H17.8196L17.0667 32.3756L16.6745 35.8422L17.0353 35.4971H22.949L23.3412 35.8422L22.9176 32.3756Z" fill="#161616" stroke="#161616" stroke-linecap="round" stroke-linejoin="round"/>
<path d="M38.6667 14.0696L40 7.66965L38.0078 1.72455L22.9176 12.9246L28.7216 17.8344L36.9255 20.2344L38.7451 18.1167L37.9608 17.552L39.2157 16.4069L38.2431 15.654L39.498 14.6971L38.6667 14.0696Z" fill="#763D16" stroke="#763D16" stroke-linecap="round" stroke-linejoin="round"/>
<path d="M0 7.66965L1.33333 14.0696L0.486275 14.6971L1.74118 15.654L0.784314 16.4069L2.03922 17.552L1.2549 18.1167L3.05882 20.2344L11.2627 17.8344L17.0667 12.9246L1.97647 1.72455L0 7.66965Z" fill="#763D16" stroke="#763D16" stroke-linecap="round" stroke-linejoin="round"/>
<path d="M36.9255 20.2344L28.7216 17.8344L31.2157 21.5834L27.498 28.7991L32.3921 28.7363H39.6863L36.9255 20.2344Z" fill="#F6851B" stroke="#F6851B" stroke-linecap="round" stroke-linejoin="round"/>
<path d="M11.2627 17.8344L3.05882 20.2344L0.329407 28.7363H7.60784L12.4863 28.7991L8.78431 21.5834L11.2627 17.8344Z" fill="#F6851B" stroke="#F6851B" stroke-linecap="round" stroke-linejoin="round"/>
<path d="M22.4 21.9755L22.9177 12.9245L25.302 6.47748H14.7137L17.0667 12.9245L17.6157 21.9755L17.8039 24.8304L17.8196 31.8579H22.1647L22.1961 24.8304L22.4 21.9755Z" fill="#F6851B" stroke="#F6851B" stroke-linecap="round" stroke-linejoin="round"/>
</g>
<defs>
<clipPath id="clip0_1517_1298">
<rect width="40" height="40" fill="white" transform="translate(0 0.162048)"/>
</clipPath>
</defs>
</svg>
