<svg width="31" height="31" viewBox="0 0 31 31" fill="none" xmlns="http://www.w3.org/2000/svg">
<g clip-path="url(#clip0_610_1029)">
<path d="M1.53066 7.07893L1.53068 7.07887C2.33545 4.76362 3.98349 2.92961 6.21236 1.88947C7.19102 1.43116 8.44938 1.09822 9.58692 1.01157C10.0414 0.97385 11.0854 1.02331 11.6461 1.12268C15.4885 1.73087 18.4689 4.76738 19.1484 8.75784C19.2118 9.12584 19.2421 9.68999 19.2421 10.2385C19.2421 10.7864 19.2119 11.3402 19.1479 11.6856M1.53066 7.07893L18.9512 11.6492M1.53066 7.07893C0.194539 10.9265 1.505 15.1736 4.76342 17.5152L4.76419 17.5157C5.41028 17.9754 6.57847 18.5656 7.32353 18.814L7.32558 18.8146C8.36404 19.1484 9.01509 19.2482 10.2213 19.2359L1.53066 7.07893ZM19.1479 11.6856L18.9512 11.6492M19.1479 11.6856C19.1479 11.6854 19.148 11.6852 19.148 11.685L18.9512 11.6492M19.1479 11.6856C19.1325 11.7702 19.1185 11.849 19.107 11.9173M18.9512 11.6492C18.9313 11.759 18.9134 11.8606 18.9001 11.943C18.9021 11.9428 18.9042 11.9425 18.9065 11.9423C18.9337 11.9394 18.972 11.935 19.0184 11.9291C19.0455 11.9257 19.0753 11.9217 19.107 11.9173M19.107 11.9173C19.1004 11.9562 19.0947 11.9917 19.0899 12.023C19.0833 12.0667 19.079 12.0987 19.0771 12.1191C19.077 12.1207 19.0769 12.122 19.0768 12.1232C19.0765 12.1233 19.0762 12.1233 19.076 12.1234C19.0757 12.1196 19.0752 12.1144 19.0742 12.1082C19.0731 12.102 19.0708 12.0899 19.0653 12.075C19.0606 12.0623 19.0484 12.0327 19.02 12.0043L18.8786 12.1457V12.0947L19.3993 12.0731C21.6395 11.6856 23.904 12.182 25.8294 13.4777M19.107 11.9173C19.1839 11.9065 19.2724 11.8929 19.3635 11.8763L19.3652 11.876C21.6575 11.4795 23.974 11.9881 25.941 13.3118M25.941 13.3118C25.941 13.3118 25.941 13.3118 25.941 13.3118L25.8294 13.4777M25.941 13.3118L25.8294 13.4777M25.941 13.3118C27.9839 14.6861 29.4432 16.9247 29.8889 19.3264L29.889 19.3268C29.9589 19.708 29.9922 20.2975 29.9922 20.872C29.9922 21.446 29.9589 22.0275 29.8886 22.3918L29.8886 22.3919C29.518 24.3066 28.6762 25.9294 27.3028 27.3028L27.3023 27.3033C25.6209 28.9723 23.5642 29.8896 21.213 30.001L21.2129 30.001C17.2453 30.1869 13.5098 27.573 12.1986 23.7262L12.1984 23.7255C11.728 22.3267 11.6035 20.7181 11.8643 19.3266C11.8644 19.3264 11.8644 19.3262 11.8644 19.326L12.061 19.3629H29.6922C29.2563 17.0137 27.8274 14.8219 25.8294 13.4777M2.47037 12.5938C2.86998 13.8047 3.48756 14.834 4.37155 15.7422C5.07389 16.4566 5.70358 16.9289 6.52702 17.3406C7.72584 17.9461 8.46452 18.1156 9.83288 18.1641C10.5837 18.1883 10.9106 18.1762 11.3587 18.1035C12.2548 17.9582 12.4485 17.8856 12.5333 17.6676L2.47037 12.5938ZM2.47037 12.5938C2.17975 11.734 2.08288 11.0559 2.08288 10.1356C2.08288 8.85196 2.31295 7.83477 2.83366 6.73282L2.47037 12.5938ZM11.3266 17.9061C10.8972 17.9757 10.5849 17.9882 9.83972 17.9642C8.49741 17.9167 7.78755 17.7532 6.61718 17.1621L6.61646 17.1617C5.81538 16.7612 5.20333 16.303 4.51457 15.6024C3.65243 14.7165 3.0506 13.7138 2.66031 12.5311L2.65984 12.5297C2.37701 11.693 2.28288 11.0368 2.28288 10.1356C2.28288 8.88126 2.50654 7.89355 3.014 6.81928C3.44012 5.9436 3.89935 5.29607 4.59773 4.59768L4.59838 4.59703C5.87252 3.31109 7.15258 2.67374 9.16254 2.3045C9.16375 2.30443 9.17127 2.30368 9.18854 2.30281C9.20855 2.30181 9.23547 2.30092 9.26906 2.30018C9.33607 2.29871 9.42566 2.29796 9.53165 2.29796C9.74343 2.29796 10.0175 2.30096 10.3009 2.30699L10.3009 2.30704H10.3051C11.074 2.30704 11.4197 2.34321 11.7612 2.42288C13.2279 2.76591 14.4914 3.45088 15.5674 4.47938C16.253 5.14144 16.7115 5.76453 17.137 6.61526C17.507 7.37923 17.706 7.90783 17.8591 8.66169L17.8591 8.6617L17.8597 8.66452C17.9276 8.9755 17.9641 9.53282 17.9641 10.1053C17.9641 10.6777 17.9276 11.2351 17.8597 11.546L17.8595 11.547C17.8466 11.6075 17.835 11.663 17.8243 11.714C17.7938 11.8589 17.7709 11.968 17.7476 12.0569C17.7165 12.1756 17.6905 12.2328 17.6625 12.2708C17.6364 12.3062 17.5973 12.3403 17.5083 12.3887C17.435 12.4286 17.3425 12.4708 17.2137 12.5295C17.1785 12.5455 17.1407 12.5628 17.0998 12.5815L17.0998 12.5815L17.0979 12.5824C15.5531 13.3116 14.2781 14.388 13.3251 15.7863C13.0137 16.235 12.5348 17.1314 12.3479 17.5924L12.3479 17.5924L12.3469 17.5951C12.3345 17.6269 12.3224 17.644 12.3061 17.6587C12.2872 17.6757 12.2522 17.6987 12.1805 17.7253C12.0311 17.7809 11.7787 17.8328 11.3266 17.9061ZM26.7685 15.6557L26.7686 15.6558C27.6652 16.6822 28.2681 17.91 28.5641 19.2951C28.6388 19.6576 28.681 20.2264 28.6855 20.804C28.69 21.3818 28.6566 21.9472 28.5878 22.3032C27.9375 25.5898 25.578 27.9375 22.3029 28.5878L22.3013 28.5881C21.9705 28.6566 21.4177 28.693 20.8539 28.693C20.29 28.693 19.7406 28.6566 19.4163 28.5883L19.4139 28.5878C16.1272 27.9376 13.7794 25.578 13.1291 22.3029L13.1286 22.3006C13.0603 21.976 13.0239 21.4415 13.0239 20.8887C13.0239 20.3366 13.0601 19.7884 13.1291 19.4378L13.1294 19.4361C13.5194 17.3566 14.7485 15.4788 16.4701 14.3348C17.5786 13.6037 18.6857 13.2134 20.2076 13.0348C20.3796 13.0185 20.7639 13.0236 21.1767 13.0448C21.5886 13.0659 22.0049 13.1018 22.2343 13.1419C24.0203 13.4613 25.6376 14.3599 26.7685 15.6557Z" fill="#187E9D" stroke="#187E9D" stroke-width="0.4"/>
<path d="M11.3344 8.74298L11.2434 8.7015C11.0721 9.07724 10.7048 9.31424 10.3008 9.3752C9.89698 9.43612 9.46905 9.31924 9.18013 9.00254L9.18015 9.00252L9.17845 9.00074C9.04492 8.86141 8.9638 8.74281 8.91566 8.61042C8.86721 8.47719 8.84915 8.32176 8.85504 8.10389L8.85508 8.10389V8.10118C8.85508 7.86148 8.8873 7.67599 8.95161 7.52411C9.0154 7.37344 9.11321 7.25008 9.25349 7.13786L9.25349 7.13787L9.25434 7.13717C9.38019 7.0342 9.49319 6.96889 9.62348 6.92817C9.75519 6.88701 9.91039 6.86915 10.1234 6.86915C10.2795 6.86915 10.3791 6.87532 10.4676 6.89543C10.5547 6.91521 10.6362 6.94976 10.7534 7.0142L10.7533 7.01426L10.7568 7.01602C10.9608 7.11797 11.1022 7.24502 11.1967 7.40565C11.2919 7.5674 11.3439 7.77096 11.3556 8.03297L11.3555 8.03297L11.3557 8.03565C11.3677 8.20313 11.3669 8.30517 11.3509 8.39562C11.3351 8.4856 11.3032 8.57 11.2433 8.7016L11.3344 8.74298ZM11.3344 8.74298C11.4555 8.47657 11.4797 8.36759 11.4555 8.02853L10.8016 6.92657C10.5594 6.79337 10.4383 6.76915 10.1234 6.76915C9.6875 6.76915 9.45742 6.84181 9.19102 7.05978C8.88828 7.30196 8.75508 7.6047 8.75508 8.10118C8.74297 8.54923 8.82773 8.77931 9.10625 9.06993C9.73594 9.76017 10.959 9.56642 11.3344 8.74298ZM7.95047 7.22236L7.95043 7.22234L7.94924 7.22502C7.87611 7.38957 7.82987 7.50691 7.80336 7.63783C7.777 7.76798 7.77109 7.90682 7.77109 8.11329C7.77109 8.32551 7.77695 8.46508 7.80512 8.596C7.83342 8.7275 7.88319 8.84535 7.96203 9.01517L7.96206 9.01523C8.21402 9.55695 8.6545 9.99751 9.17139 10.2497L9.17224 10.2501C9.69876 10.5008 10.11 10.5538 10.62 10.4263L10.6204 10.4262C11.8521 10.112 12.6914 8.87886 12.4617 7.7304L12.4617 7.7304L12.4615 7.72917C12.2977 6.9606 11.8299 6.3539 11.1121 6.00127L11.1121 6.00126L11.111 6.00074C10.5824 5.74904 9.87604 5.69559 9.3858 5.88847C8.75398 6.11637 8.25112 6.59601 7.95047 7.22236Z" fill="#187E9D" stroke="#187E9D" stroke-width="0.2"/>
<path d="M5.91354 10.2074L5.90952 10.2174L5.90774 10.2281C5.90501 10.2445 5.90336 10.2735 5.90198 10.3052C5.90048 10.34 5.89904 10.3862 5.89771 10.4423C5.89504 10.5547 5.89277 10.7081 5.89125 10.8916C5.88822 11.2585 5.88822 11.7464 5.89428 12.2677C5.89428 12.2678 5.89428 12.2679 5.89428 12.268L5.90638 14.1686L5.90671 14.2197L5.94826 14.2493L6.11445 14.3681L6.26874 14.4986L6.29671 14.5223H6.33334H10.1357H13.938H13.982L14.0117 14.4898L14.142 14.3477L14.2841 14.2175L14.3165 14.1877V14.1438V12.1578V12.1497C14.3165 11.2003 14.3165 10.702 14.3013 10.4237C14.2936 10.2847 14.2819 10.1923 14.2613 10.1233C14.2393 10.0494 14.2082 10.0059 14.1738 9.96444C14.079 9.83964 13.9273 9.77882 13.78 9.77523C13.6325 9.77163 13.476 9.82496 13.3686 9.94602C13.3349 9.97981 13.3014 10.0176 13.2774 10.0833C13.2551 10.1442 13.2428 10.2245 13.2343 10.3418C13.2175 10.5753 13.2144 10.9947 13.2085 11.7942L13.2083 11.818L13.2083 11.818L13.1969 13.4023L10.1232 13.4141L7.05091 13.4258V11.8551V10.1719V10.1279L7.01849 10.0982L6.87349 9.96525C6.66191 9.76811 6.29708 9.72766 6.08098 9.94375C6.0076 10.0171 5.94073 10.1394 5.91354 10.2074Z" fill="#187E9D" stroke="#187E9D" stroke-width="0.2"/>
<path d="M18.7717 16.7756L18.7717 16.7756L18.771 16.7766C18.6401 16.9729 18.5583 17.1033 18.5229 17.2131C18.483 17.3368 18.5023 17.4311 18.5419 17.5434L18.5419 17.5434L18.5426 17.5453C18.5836 17.6547 18.6427 17.7447 18.7336 17.8053C18.8239 17.8654 18.9335 17.8887 19.0601 17.8887C19.1196 17.8887 19.1763 17.8838 19.2315 17.8665C19.288 17.8488 19.3376 17.8197 19.3858 17.778C19.4769 17.6992 19.5692 17.5685 19.7003 17.3719L19.7003 17.3719L19.7016 17.3698C19.8414 17.1485 20.0718 16.8791 20.3108 16.6446C20.5519 16.4079 20.7899 16.2187 20.9428 16.1477L20.9428 16.1478L20.9454 16.1465C21.1227 16.0578 21.346 16.0117 21.5712 16.0117C21.7966 16.0117 22.0163 16.0579 22.1869 16.1459L22.1869 16.1459C22.5641 16.3402 22.974 16.7705 23.2207 17.2637C23.3251 17.4786 23.3733 17.579 23.3989 17.6965C23.4249 17.8155 23.4284 17.9552 23.4284 18.2488C23.4284 18.5236 23.4251 18.6684 23.4043 18.7835C23.3843 18.8943 23.3475 18.9804 23.2694 19.1365L23.1273 19.4209L20.476 19.4445L20.4756 19.4445C19.519 19.4566 18.8308 19.4688 18.3726 19.4839C18.1436 19.4915 17.9707 19.4999 17.8499 19.5096C17.7896 19.5144 17.7406 19.5196 17.7033 19.5256C17.6847 19.5285 17.6673 19.5319 17.652 19.536C17.6401 19.5392 17.6214 19.5449 17.6038 19.5557C17.5065 19.6118 17.3962 19.7106 17.3038 19.8139C17.2117 19.917 17.1257 20.0375 17.0889 20.1406L17.0889 20.1406L17.0882 20.1426C17.0797 20.1682 17.0746 20.2057 17.0706 20.2444C17.0662 20.2866 17.0622 20.3414 17.0585 20.4082C17.051 20.5419 17.0445 20.727 17.0392 20.9621C17.0286 21.4324 17.0226 22.1053 17.0226 22.9715V25.6113V25.6382L17.036 25.6614L17.1686 25.8905C17.2507 26.0401 17.4212 26.2106 17.5708 26.2923C17.5709 26.2924 17.571 26.2924 17.5712 26.2925L17.7884 26.4132L17.8111 26.4258H17.837H20.8765H23.928H23.9591L23.9847 26.4082L24.1784 26.275L24.1785 26.2751L24.1818 26.2726C24.2862 26.1942 24.4383 26.0422 24.5166 25.9377L24.5167 25.9378L24.519 25.9344L24.6522 25.7406L24.6698 25.715V25.684V22.9715V22.9566C24.6698 21.4986 24.6698 20.7568 24.6315 20.351C24.6123 20.1473 24.5826 20.0151 24.5307 19.916C24.4777 19.815 24.4056 19.7574 24.3316 19.6982L24.3296 19.6965L24.3296 19.6964L24.3259 19.6937L24.2525 19.6403L24.3617 19.3227L24.3617 19.3226C24.5261 18.842 24.5497 18.0355 24.4129 17.4512C24.1274 16.2222 23.1948 15.2303 22.0843 15.0268C21.8904 14.9784 21.7512 14.952 21.6045 14.952C21.458 14.952 21.3096 14.9784 21.0972 15.0269C20.623 15.1268 20.3438 15.2541 19.9339 15.5522C19.5355 15.8386 19.0918 16.3076 18.7717 16.7756ZM23.5616 22.8988V25.2934H20.8401H18.1187V22.8988V20.5043H20.8401H23.5616V22.8988Z" fill="#187E9D" stroke="#187E9D" stroke-width="0.2"/>
</g>
<defs>
<clipPath id="clip0_610_1029">
<rect width="31" height="31" fill="white"/>
</clipPath>
</defs>
</svg>
