<svg width="24" height="27" viewBox="0 0 24 27" fill="none" xmlns="http://www.w3.org/2000/svg">
<path d="M15.1875 7.17188V0H4.64062C3.93926 0 3.375 0.564258 3.375 1.26562V13.5H0.421875C0.189844 13.5 0 13.6898 0 13.9219V14.7656C0 14.9977 0.189844 15.1875 0.421875 15.1875H7.85215C8.01035 15.1875 8.15801 15.2771 8.23184 15.4195L9.28125 17.5184L12.2766 11.5225C12.4295 11.2113 12.8777 11.2113 13.0307 11.5225L14.8605 15.1875H18.5625C19.0266 15.1875 19.4062 15.5672 19.4062 16.0312C19.4062 16.4953 19.0266 16.875 18.5625 16.875H13.8217L12.6562 14.5441L9.66094 20.54C9.50801 20.8512 9.05976 20.8512 8.90683 20.54L7.07168 16.875H3.375V25.7344C3.375 26.4357 3.93926 27 4.64062 27H22.3594C23.0607 27 23.625 26.4357 23.625 25.7344V8.4375H16.4531C15.757 8.4375 15.1875 7.86797 15.1875 7.17188ZM23.2559 5.53711L18.0932 0.369141C17.8559 0.131836 17.5342 0 17.1967 0H16.875V6.75H23.625V6.42832C23.625 6.09609 23.4932 5.77441 23.2559 5.53711Z" fill="#187E9D"/>
</svg>
