<svg width="23" height="23" viewBox="0 0 23 23" fill="none" xmlns="http://www.w3.org/2000/svg">
<path d="M15.3599 20.5789C15.3601 21.1897 15.1149 21.7781 14.6735 22.2259C14.2321 22.6738 13.6271 22.9481 12.9797 22.9939L12.7867 23H10.2135C9.5643 23.0002 8.93903 22.7695 8.46301 22.3542C7.98698 21.9389 7.69541 21.3696 7.64672 20.7605L7.64028 20.5789H15.3599ZM11.5001 1.15492e-09C13.8353 -3.62493e-05 16.0792 0.853292 17.7584 2.37998C19.4377 3.90668 20.4211 5.98737 20.5012 8.18316L20.5063 8.47368V13.0301L22.8505 17.4413C22.9528 17.6337 23.004 17.8467 22.9998 18.0618C22.9955 18.277 22.9358 18.488 22.8259 18.6767C22.716 18.8654 22.5591 19.0263 22.3687 19.1455C22.1782 19.2647 21.96 19.3387 21.7325 19.3612L21.5845 19.3684H1.41568C1.18688 19.3685 0.96147 19.3164 0.758771 19.2165C0.556071 19.1166 0.382127 18.972 0.251843 18.7951C0.121559 18.6181 0.0388201 18.414 0.0107166 18.2004C-0.0173869 17.9868 0.009983 17.7699 0.0904807 17.5684L0.149665 17.4413L2.49386 13.0301V8.47368C2.49386 6.22632 3.44273 4.07101 5.13173 2.48188C6.82072 0.892761 9.1115 1.15493e-09 11.5001 1.15492e-09Z" fill="url(#paint0_linear_60_715)"/>
<defs>
<linearGradient id="paint0_linear_60_715" x1="11.5" y1="0" x2="11.5" y2="23" gradientUnits="userSpaceOnUse">
<stop stop-color="#0054F5"/>
<stop offset="1" stop-color="#5A8CFF"/>
</linearGradient>
</defs>
</svg>
