<svg width="26" height="23" viewBox="0 0 26 23" fill="none" xmlns="http://www.w3.org/2000/svg">
<path d="M24.1429 9.03571H15.7857V1.64286C15.7857 0.735692 14.9541 0 13.9286 0H12.0714C11.0459 0 10.2143 0.735692 10.2143 1.64286V9.03571H1.85714C0.831652 9.03571 0 9.77141 0 10.6786V12.3214C0 13.2286 0.831652 13.9643 1.85714 13.9643H10.2143V21.3571C10.2143 22.2643 11.0459 23 12.0714 23H13.9286C14.9541 23 15.7857 22.2643 15.7857 21.3571V13.9643H24.1429C25.1683 13.9643 26 13.2286 26 12.3214V10.6786C26 9.77141 25.1683 9.03571 24.1429 9.03571Z" fill="white"/>
</svg>
